<svg xmlns="http://www.w3.org/2000/svg" xmlns:xlink="http://www.w3.org/1999/xlink" width="219.999" height="161.842" viewBox="0 0 219.999 161.842"><defs><style>.a{fill:#f1f1f1;}.b{fill:#151515;}.ac,.c,.e,.h,.j,.k,.l,.m,.p,.q,.r,.s,.t,.v,.w,.z{isolation:isolate;}.d,.e,.q,.r,.v{fill:#b2b3b4;}.e{opacity:0.6;}.f{fill:#a9a9aa;}.aa,.g,.l,.t{fill:#fff;}.g,.k,.l,.o{stroke:#000;}.g,.i,.j,.k,.l,.o{stroke-width:0.2px;}.h{fill:#e3e3e2;}.h,.j,.l,.m,.r{opacity:0.2;}.i,.j{stroke:#231f20;}.i,.j,.x,.z{fill:url(#a);}.k{fill:#4679bc;}.n{fill:#253238;}.o{fill:none;}.p{opacity:0.3;}.q,.z{opacity:0.1;}.s{fill:#bebdbe;}.t{opacity:0.9;}.u{fill:#5374b8;}.w{fill:#d9d8dc;opacity:0.5;}.y{fill:url(#f);}.ab,.ac{fill:#fab630;}.ac{opacity:0.7;}</style><linearGradient id="a" y1="0.5" x2="1" y2="0.5" gradientUnits="objectBoundingBox"><stop offset="0" stop-color="#3e85f0"/><stop offset="0.343" stop-color="#0066fe"/><stop offset="1" stop-color="#0162f1"/></linearGradient><linearGradient id="f" x1="0" y1="0.5" x2="1" y2="0.5" xlink:href="#a"/></defs><g transform="translate(-1561.119 1239.862)"><ellipse class="a" cx="76" cy="78.5" rx="76" ry="78.5" transform="translate(1629.118 -1239.862)"/><path class="a" d="M1672.119-1124.36a58.927,58.927,0,0,1-3.17,19.17,56.9,56.9,0,0,1-4.56,10.11.415.415,0,0,1-.07.11.506.506,0,0,1-.09.16,3.354,3.354,0,0,1-.19.32c-.08.16-.18.32-.27.47l-.09.15c-.11.18-.21.36-.32.53a.01.01,0,0,0-.01.01c-.62.99-1.26,1.97-1.94,2.92-.09.13-.18.26-.28.39a2.052,2.052,0,0,1-.13.18c-.7.97-1.43,1.91-2.2,2.83a56.01,56.01,0,0,1-8.7,8.51c-.2.16-.41.32-.62.48h-65.72l-.39-.3a58.121,58.121,0,0,1-22.25-46.04c0-23.18,13.23-43.15,32.3-52.25a53.659,53.659,0,0,1,23.2-5.25,53.592,53.592,0,0,1,13.6,1.74,1.057,1.057,0,0,1,.19.05c.28.07.55.15.83.23.34.09.68.19,1.02.29v.01c.15.04.31.09.47.14a53,53,0,0,1,7.09,2.79,3.168,3.168,0,0,1,.32.16c.15.06.3.14.44.21a.311.311,0,0,1,.1.05c.17.08.34.17.51.26,1.32.67,2.6,1.39,3.85,2.17.14.09.28.17.42.26a56.158,56.158,0,0,1,9.35,7.42q.975.945,1.89,1.95c.25.27.5.55.75.83a.218.218,0,0,1,.04.05q.39.42.75.87c.1.1.19.21.28.32q.915,1.08,1.77,2.22c1.07,1.4,2.06,2.85,3,4.35.66,1.07,1.3,2.16,1.89,3.28.62,1.14,1.19,2.31,1.73,3.5.15.32.29.64.43.97a58.6,58.6,0,0,1,3.02,8.96c.31,1.26.59,2.54.81,3.83.07.31.12.62.16.93A59.12,59.12,0,0,1,1672.119-1124.36Z"/><circle class="a" cx="32.5" cy="32.5" r="32.5" transform="translate(1584.118 -1231.862)"/><path class="b" d="M1704.229-1134.023H1660.1a1.5,1.5,0,0,1-1.5-1.5v-1.76a1.5,1.5,0,0,1,1.5-1.5h44.13a1.5,1.5,0,0,1,1.5,1.5v1.759a1.5,1.5,0,0,1-1.5,1.5Z"/><g class="c"><path class="d" d="M1703.814-1080.943h1.914l-2.224-53.08h-2.69Z"/><path class="e" d="M1703.814-1080.943h1.914l-2.224-53.08h-2.69Z"/></g><g class="c"><path class="d" d="M1685.966-1080.943h-1.914l2.225-53.08h2.69Z"/><path class="e" d="M1685.966-1080.943h-1.914l2.225-53.08h2.69Z"/></g><g class="c"><path class="d" d="M1678.309-1080.943h1.914l-2.224-53.08h-2.69Z"/><path class="e" d="M1678.309-1080.943h1.914l-2.224-53.08h-2.69Z"/></g><g class="c"><path class="d" d="M1660.513-1080.943h-1.966l2.225-53.08h2.69Z"/><path class="e" d="M1660.513-1080.943h-1.966l2.225-53.08h2.69Z"/></g><g class="c"><path class="f" d="M1703.5-1134.023h-2.69l.155,2.225h2.639Z"/><path class="f" d="M1686.173-1131.8h2.638l.155-2.225h-2.693Z"/><path class="f" d="M1675.309-1134.023l.155,2.225h2.638l-.1-2.225Z"/><path class="f" d="M1660.668-1131.8h2.69l.1-2.225h-2.69Z"/></g><path class="g" d="M1677.068-1088.7l-4.4,2.328-6.881-9.364,4.4-2.328Z"/><path class="b" d="M1671.119-1087.824l4.553-3.156a.4.4,0,0,1,.517.052l2.742,3.466a.958.958,0,0,1-.207,1.242c-1.6,1.086-2.328,1.449-4.449,2.69a68.426,68.426,0,0,1-6.312,3.415c-1.862.828-2.69-1.086-1.914-1.6,1.759-1.242,4.035-3.673,4.553-5.38A1.066,1.066,0,0,1,1671.119-1087.824Z"/><path class="h" d="M1670.19-1098.068l-4.4,2.328,3.311,4.5,4.294-2.432Z"/><path class="i" d="M1680.741-1153.218s-33.99-1.035-34.145,13.141c-.155,20.435,19.194,47.234,19.194,47.234l7.553-5.018s-13.3-19.5-13.4-35.438c10.037-2.845,33.628-1.035,36.68-9.364,2.483-6.777,1.19-10.554,1.19-10.554Z"/><path class="j" d="M1680.741-1153.218s-33.99-1.035-34.145,13.141c-.155,20.435,19.194,47.234,19.194,47.234l7.553-5.018s-13.3-19.5-13.4-35.438c10.037-2.845,33.628-1.035,36.68-9.364,2.483-6.777,1.19-10.554,1.19-10.554Z"/><path class="k" d="M1675.464-1096.568l-9.054,5.536-2.794-2.9,9.881-6.26Z"/><path class="b" d="M1671.119-1087.1c0-.05-.05-.05-.1-.05s-.2,0-.4.01a2.377,2.377,0,0,0-.36.03h-.01c-.57.05-1.29.18-1.51.53a.218.218,0,0,0-.03.05.436.436,0,0,0-.02.37.311.311,0,0,0,.05.1.489.489,0,0,0,.42.31,1.8,1.8,0,0,0,.98-.37c.02-.01.03-.03.05-.04a8.2,8.2,0,0,0,.93-.84.127.127,0,0,0,.04-.07C1671.159-1087.09,1671.149-1087.1,1671.119-1087.1Zm-.67.41c-.5.47-.93.67-1.19.63-.16,0-.21-.1-.31-.31-.06-.1-.06-.16,0-.21a3.766,3.766,0,0,1,1.61-.41,1.34,1.34,0,0,1,.2-.01C1670.649-1086.88,1670.549-1086.78,1670.449-1086.69Z"/><path class="b" d="M1670.859-1087.6c-.29-.38-.72-.88-1.14-.95a.528.528,0,0,0-.52.15.528.528,0,0,0-.15.52,1.943,1.943,0,0,0,1.2.77h.01a2.134,2.134,0,0,0,.32.08,1.768,1.768,0,0,0,.44.03h.1a.127.127,0,0,0,.04-.07.223.223,0,0,0,.01-.08C1671.149-1087.17,1671.039-1087.36,1670.859-1087.6Zm-1.55-.43c-.05,0-.05-.09.08-.23l.01-.01c.01-.01.01-.01.01-.02a.468.468,0,0,1,.26-.05c.35.04.79.54,1.06.92.05.06.09.12.13.17a.643.643,0,0,1-.2-.03A2.186,2.186,0,0,1,1669.309-1088.03Z"/><path class="g" d="M1668.945-1083.013l-4.915-.259-.776-11.588,4.915.259Z"/><path class="b" d="M1663.927-1084.1l5.587-.155a.346.346,0,0,1,.362.31l.414,4.4a.906.906,0,0,1-.828.931c-1.914.052-2.845-.052-5.329,0a45.461,45.461,0,0,1-6.519,0c-2.018-.259-1.759-2.276-.828-2.38a13.728,13.728,0,0,0,6.363-2.794A1.3,1.3,0,0,1,1663.927-1084.1Z"/><path class="b" d="M1663.559-1083.57c-.04-.03-.18-.12-.38-.24-.14-.08-.31-.17-.49-.26a1.837,1.837,0,0,0-1.3-.28c-.16.05-.21.15-.26.31a.662.662,0,0,0,.15.62,1.192,1.192,0,0,0,.94.25h.07a4.58,4.58,0,0,0,1.22-.2c.05,0,.05-.06.1-.1C1663.609-1083.53,1663.609-1083.57,1663.559-1083.57Zm-.91.15a1.653,1.653,0,0,1-1.21-.11.391.391,0,0,1-.1-.41c0-.1.06-.16.1-.16.27-.18.98.12,1.54.44.08.04.15.09.22.13C1663.009-1083.49,1662.819-1083.45,1662.649-1083.42Z"/><path class="b" d="M1663.609-1084.04a2.282,2.282,0,0,0-.46-1.4.857.857,0,0,0-.52-.15.478.478,0,0,0-.41.36,1.717,1.717,0,0,0,.47,1.16,2.027,2.027,0,0,0,.34.37,1.747,1.747,0,0,0,.38.28c.05.05.05.05.1.05h.06c.05,0,.05-.06.05-.1C1663.619-1083.49,1663.629-1083.73,1663.609-1084.04Zm-1.13-1.2c0-.05.05-.15.21-.15h.05c.1,0,.15.05.26.1a2.2,2.2,0,0,1,.36,1.36v.19a1.281,1.281,0,0,1-.13-.11C1662.8-1084.24,1662.389-1084.91,1662.479-1085.24Z"/><path class="l" d="M1668.169-1094.6l-4.915-.259.466,6.622h4.863Z"/><path class="i" d="M1692.847-1153.217s-35.594,3.363-34.3,14.072c1.862,15.469,2.794,48.734,2.794,48.734l9.054.362s3.828-30.058,1.862-45.837c9.209,0,31.765.673,33.835-4.863,1.811-4.915,1.19-12.416,1.19-12.416h-14.435Z"/><path class="k" d="M1671.428-1089.48l-10.916-.569-.362-4.708,11.9.828Z"/><path class="g" d="M1684.932-1184.62c-.052.879-.155,1.6-.259,2.432-.1.776-.207,1.552-.31,2.38-.259,1.552-.569,3.1-.931,4.708a37.069,37.069,0,0,1-3.415,9.416,16.073,16.073,0,0,1-1.6,2.38,10.38,10.38,0,0,1-2.328,2.173,11.182,11.182,0,0,1-5.743,1.914,16.253,16.253,0,0,1-5.329-.517,18.993,18.993,0,0,1-2.432-.776,7.623,7.623,0,0,1-1.138-.517,8.854,8.854,0,0,1-1.19-.621l1.345-3.466.983.1,1.035.1c.673.052,1.4.1,2.069.1a13.961,13.961,0,0,0,3.725-.414,6.676,6.676,0,0,0,2.638-1.345,8.46,8.46,0,0,0,.879-.983,9.7,9.7,0,0,0,.828-1.449,23.64,23.64,0,0,0,1.345-3.673,33.962,33.962,0,0,0,.983-4.087c.31-1.4.517-2.794.776-4.242l.31-2.121c.1-.724.207-1.449.259-2.069Z"/><path class="g" d="M1684.98-1188.81c-3.621-3.518-8.122-1.449-9.933,5.122a58.491,58.491,0,0,0-2.069,10.813l11.537,2.38C1686.586-1176.807,1688.707-1185.24,1684.98-1188.81Z"/><path d="M1681.258-1181.619c.828-.724,3.156,2.587,4.6,6.674-.414,1.552-.88,3.052-1.345,4.449l-6.932-1.449C1678.154-1176.032,1679.4-1179.964,1681.258-1181.619Z"/><path class="g" d="M1660.926-1166.668l-2.59-.983-.1,5.484s4.346,1.862,5.225-.259l-.31-1.345A4.456,4.456,0,0,0,1660.926-1166.668Z"/><path class="g" d="M1655.287-1167.5l-1.552,4.6,4.5.724.1-5.484Z"/><path d="M1659.167-1163.822a.284.284,0,0,1-.259-.155l-4.6-8.9a.3.3,0,0,1,.1-.414.3.3,0,0,1,.414.1l4.6,8.9a.4.4,0,0,1-.1.414A.192.192,0,0,1,1659.167-1163.822Z"/><path class="g" d="M1684.518-1192.38l5.536-1.552,7.088-.31a4.912,4.912,0,0,1,4.915,3.414,128.632,128.632,0,0,1,3.518,15.262,154.617,154.617,0,0,1,1.655,22.4h-26.489a201.16,201.16,0,0,0-3.621-31.61,4.9,4.9,0,0,1,2.742-5.277Z"/><path d="M1705.573-1175.618c-.724-4.035-1.656-8.64-2.639-12.416-4.708-.776-7.036,9.571-5.587,14.693,1.4,5.122,8.9,2.018,8.9,2.018C1705.987-1172.824,1705.78-1174.325,1705.573-1175.618Z"/><path class="g" d="M1687.88-1202.882l-2.121,3.259-2.9,4.449a4.587,4.587,0,0,1,.88,1.345c.517,1.086.983,1.862-1.293,3.415a1.557,1.557,0,0,0-.673,1.5c.155.673.828,1.4,3.259.931a10.941,10.941,0,0,0,6.1-3.415c.828-.828.621-1.449-.155-2.276C1688.76-1196.053,1688.087-1199.83,1687.88-1202.882Z"/><path class="m" d="M1683.534-1196.26l1.811-3.208a.523.523,0,0,1,.1.259,7.146,7.146,0,0,1,.362,1.242c.31,1.4-.776,3.414-1.966,4.4a1.132,1.132,0,0,0-.155-.259,5.629,5.629,0,0,0-.828-1.293l-.052-.052Z"/><path class="b" d="M1672.774-1206.762c-.673,1.5,1.707,5.794,4.4,4.035C1679.861-1204.437,1673.964-1209.453,1672.774-1206.762Z"/><path d="M1685.811-1187.051c-.052,0-.155-.052-.155-.1a5.8,5.8,0,0,0-1.966-3.052,8.976,8.976,0,0,1-3-5.122c0-.1.052-.155.1-.155.1,0,.155.052.155.1a8.442,8.442,0,0,0,2.9,4.967,5.8,5.8,0,0,1,2.069,3.208c.052.052,0,.1-.1.155Z"/><path class="g" d="M1686.9-1208.263c1.035,4.708,1.862,7.4.155,10.347-2.535,4.5-8.847,3.88-11.226-.414-2.173-3.88-3.466-10.916.569-13.917a6.635,6.635,0,0,1,9.293,1.3A6.644,6.644,0,0,1,1686.9-1208.263Z"/><path class="b" d="M1688.294-1205.055c-1.6,2.276-5.846-1.914-5.484-4.76-4.191,2.38-8.743,5.587-11.537,2.9-3.208-3.1-2.328-7.553,1.449-7.967-.673,1.293,3.1,1.862,5.122-.155,3.363-3.363,8.743-2.638,8.64.052C1689.018-1215.971,1691.864-1210.074,1688.294-1205.055Z"/><path class="n" d="M1685.966-1214.16c.983-.724.31-3.414-1.966-4.191C1686.173-1218.041,1688.449-1216.437,1685.966-1214.16Z"/><path class="g" d="M1689.8-1205.262a4.156,4.156,0,0,1-.983,2.949c-.879,1.035-2.276.207-2.587-1.086-.31-1.19.1-3,1.242-3.57C1688.656-1207.592,1689.743-1206.608,1689.8-1205.262Z"/><path class="n" d="M1680.3-1203.312c.1.362.052.776-.207.828-.259.1-.569-.155-.673-.517s-.052-.776.207-.828C1679.888-1203.937,1680.2-1203.678,1680.3-1203.312Z"/><path class="n" d="M1676.06-1201.76c.1.362.052.776-.207.828-.259.1-.569-.155-.673-.517s-.052-.776.207-.828C1675.646-1202.385,1675.956-1202.126,1676.06-1201.76Z"/><path class="n" d="M1679.655-1198.071a3.182,3.182,0,0,0,2.018-1.811.117.117,0,0,0-.033-.161.116.116,0,0,0-.161.033.093.093,0,0,0-.013.028,3.245,3.245,0,0,1-2.332,1.756c-.052,0-.1.052-.1.155,0,.052.052.1.155.1A1.043,1.043,0,0,0,1679.655-1198.071Z"/><path class="n" d="M1680.891-1204.548c.052,0,.052-.052.1-.1.052-.1.052-.259-.052-.31a2.225,2.225,0,0,0-2.121-.207.231.231,0,0,0-.1.31.232.232,0,0,0,.311.1,1.812,1.812,0,0,1,1.655.207C1680.737-1204.5,1680.787-1204.5,1680.891-1204.548Z"/><path class="n" d="M1675.495-1203.629v-.1a.249.249,0,0,0-.31-.1,2.291,2.291,0,0,0-1.4,1.6c-.052.1.052.259.207.259.1,0,.259-.052.259-.207a1.678,1.678,0,0,1,1.087-1.242A.278.278,0,0,0,1675.495-1203.629Z"/><path class="g" d="M1701.177-1190.724c.517.828.931,1.6,1.345,2.38s.828,1.6,1.242,2.38c.828,1.6,1.552,3.259,2.276,4.967.673,1.707,1.345,3.415,1.862,5.225a32.537,32.537,0,0,1,1.19,5.846,13.232,13.232,0,0,1-.1,3.466,9.244,9.244,0,0,1-.673,2.173,5.553,5.553,0,0,1-1.6,2.018,6.286,6.286,0,0,1-2.018,1.19,9.615,9.615,0,0,1-1.914.517,14.443,14.443,0,0,1-3.311.1,25.078,25.078,0,0,1-2.949-.466,23.849,23.849,0,0,1-2.742-.776,33.689,33.689,0,0,1-5.122-2.173l1.293-3.466a39.1,39.1,0,0,0,9.571.983,8.171,8.171,0,0,0,1.862-.31c.517-.155.776-.362.776-.466,0-.052-.052,0-.052-.052v-.31a7.247,7.247,0,0,0-.1-1.759,25.87,25.87,0,0,0-1.138-4.346c-.517-1.5-1.138-3-1.811-4.5s-1.4-3-2.121-4.5c-.362-.724-.776-1.5-1.138-2.225l-1.19-2.173Z"/><path class="g" d="M1698.745-1194.19c-5.018-.776-7.45,3.518-5.122,9.933a58.032,58.032,0,0,0,4.553,9.985l10.761-4.708C1707.022-1185.292,1703.866-1193.414,1698.745-1194.19Z"/><path class="g" d="M1688.228-1162.447l-.061.028-2.929.872-2.32-2.33,1.925-3.143.085-.057,2.33-.68a4.424,4.424,0,0,1,3.57.83l1.24.67C1693.008-1164.3,1688.688-1162.617,1688.228-1162.447Z"/><line class="o" x2="0.271" y2="0.405" transform="translate(1687.897 -1162.824)"/><ellipse cx="0.724" cy="0.879" rx="0.724" ry="0.879" transform="translate(1687.26 -1205.572)"/><path d="M1688.6-1202.313h-.466l-.258-2.069.828-.207Z"/><path d="M1691.553-1163.2a5.563,5.563,0,0,1-3.777-.983,2.9,2.9,0,0,1-.88-2.328,24.106,24.106,0,0,1,.983-6.312c.724-2.794,1.293-5.07-.414-7.812-2.742-4.346-1.914-10.45,0-14.279a12.015,12.015,0,0,0,.776-7.4c0-.155-.052-.259-.052-.362a.155.155,0,0,1,.154-.156.156.156,0,0,1,.156.155h0a.99.99,0,0,0,.052.362,12.23,12.23,0,0,1-.828,7.553c-1.914,3.725-2.69,9.726,0,13.968,1.811,2.845,1.19,5.225.466,8.019a23.249,23.249,0,0,0-.983,6.208,2.659,2.659,0,0,0,.828,2.121c1.4,1.242,4.5.931,7.45.621a34.887,34.887,0,0,1,3.932-.259.155.155,0,0,1,.154.155.154.154,0,0,1-.154.155c-1.19,0-2.587.155-3.88.259A37.364,37.364,0,0,1,1691.553-1163.2Z"/><path d="M1705.574-1164.288h-5.9a.333.333,0,0,0-.31.31v.414a.334.334,0,0,0,.31.31h5.9a.335.335,0,0,0,.31-.31v-.414a.274.274,0,0,0-.233-.31A.247.247,0,0,0,1705.574-1164.288Z"/><path d="M1742.511-1159.838H1599.1a1.721,1.721,0,0,1-1.707-1.707h0a1.721,1.721,0,0,1,1.707-1.707h143.461a1.722,1.722,0,0,1,1.707,1.707h0A1.734,1.734,0,0,1,1742.511-1159.838Z"/><path class="p" d="M1742.511-1159.838h-33.576a1.721,1.721,0,0,1-1.707-1.707h0a1.721,1.721,0,0,1,1.707-1.707h33.576a1.722,1.722,0,0,1,1.707,1.707h0a1.659,1.659,0,0,1-1.608,1.707Z"/><path class="d" d="M1740.959-1078.666h3.311l-3.828-81.172h-4.553Z"/><path class="q" d="M1740.959-1078.666h3.311l-3.828-81.172h-4.553Z"/><path class="d" d="M1710.539-1078.666h-3.311l3.828-81.172h4.553Z"/><path class="r" d="M1710.539-1078.666h-3.311l3.828-81.172h4.553Z"/><path class="d" d="M1631.074-1078.666h3.311l-3.828-81.172H1626Z"/><path class="q" d="M1631.074-1078.666h3.311l-3.828-81.172H1626Z"/><path class="d" d="M1600.654-1078.666h-3.311l3.828-81.172h4.553Z"/><path class="r" d="M1600.654-1078.666h-3.311l3.828-81.172h4.553Z"/><rect class="d" width="110.351" height="6.777" transform="translate(1602.103 -1155.492)"/><rect class="r" width="110.351" height="6.777" transform="translate(1602.103 -1155.492)"/><path class="s" d="M1620.261-1167.858a.706.706,0,0,0-.724.689.208.208,0,0,0,0,.035v3.156a.707.707,0,0,0,.689.724h23.523a.245.245,0,0,0,.259-.228v-4.118a.244.244,0,0,0-.228-.259h-23.519Z"/><path class="t" d="M1643.957-1167.392h-9.83a.445.445,0,0,0-.414.414v2.845a.445.445,0,0,0,.414.414h9.83Z"/><path class="u" d="M1632.523-1167.858h-23.695a.706.706,0,0,0-.724.689.208.208,0,0,0,0,.035v3.156a.707.707,0,0,0,.689.724h23.73a.708.708,0,0,0,.724-.69v-3.19a.707.707,0,0,0-.69-.724Z"/><path class="v" d="M1632.523-1167.858h-23.695a.706.706,0,0,0-.724.689.208.208,0,0,0,0,.035v3.156a.707.707,0,0,0,.689.724h23.73a.708.708,0,0,0,.724-.69v-3.19a.707.707,0,0,0-.69-.724Z"/><path class="w" d="M1620.882-1167.858h-3.57a.333.333,0,0,0-.31.31v3.984a.333.333,0,0,0,.31.31h3.57a.335.335,0,0,0,.31-.31v-3.984A.334.334,0,0,0,1620.882-1167.858Z"/><path class="w" d="M1626.108-1167.858h-3.57a.333.333,0,0,0-.31.31v3.984a.333.333,0,0,0,.31.31h3.57a.335.335,0,0,0,.31-.31v-3.984C1626.367-1167.7,1626.263-1167.858,1626.108-1167.858Z"/><path class="x" d="M1616.019-1173.5a.706.706,0,0,0-.724.689.187.187,0,0,0,0,.035v4.191a.707.707,0,0,0,.689.724h25.435a.245.245,0,0,0,.259-.228v-5.2a.244.244,0,0,0-.228-.259h-25.431Z"/><path class="t" d="M1641.68-1173.032h-11.744a.445.445,0,0,0-.414.414v3.932a.445.445,0,0,0,.414.414h11.744Z"/><path class="u" d="M1628.28-1173.5h-19.918a.706.706,0,0,0-.724.689.21.21,0,0,0,0,.035v4.191a.707.707,0,0,0,.689.724h19.953a.708.708,0,0,0,.724-.69v-4.225A.74.74,0,0,0,1628.28-1173.5Z"/><path class="x" d="M1628.28-1173.5h-19.918a.706.706,0,0,0-.724.689.21.21,0,0,0,0,.035v4.191a.707.707,0,0,0,.689.724h19.953a.708.708,0,0,0,.724-.69v-4.225A.74.74,0,0,0,1628.28-1173.5Z"/><path class="y" d="M1626.418-1172.359h-14.589a.464.464,0,0,0-.466.462v2.538a.464.464,0,0,0,.462.466h14.593a.464.464,0,0,0,.466-.462v-2.539a.464.464,0,0,0-.463-.465Z"/><path class="s" d="M1623.468-1176.187c-.414,0-.724.207-.724.414v1.862c0,.259.31.414.724.414h23.488c.155,0,.259-.052.259-.155v-2.432c0-.052-.1-.155-.259-.155h-23.488Z"/><path class="t" d="M1647.216-1175.929h-9.934a.332.332,0,0,0-.31.31v1.552a.333.333,0,0,0,.31.31h9.933Z"/><path class="d" d="M1635.937-1176.187H1611.88a.574.574,0,0,0-.569.569v1.6a.574.574,0,0,0,.569.569h24.057a.574.574,0,0,0,.569-.569v-1.6A.574.574,0,0,0,1635.937-1176.187Z"/><path class="r" d="M1635.937-1176.187H1611.88a.574.574,0,0,0-.569.569v1.6a.574.574,0,0,0,.569.569h24.057a.574.574,0,0,0,.569-.569v-1.6A.574.574,0,0,0,1635.937-1176.187Z"/><path class="w" d="M1614.933-1176.187h-.78a.111.111,0,0,0-.1.1v2.483a.111.111,0,0,0,.1.1h.776a.111.111,0,0,0,.1-.1v-2.483A.112.112,0,0,0,1614.933-1176.187Z"/><path class="w" d="M1634.437-1176.187h-.728a.111.111,0,0,0-.1.1v2.483a.111.111,0,0,0,.1.1h.724a.111.111,0,0,0,.1-.1v-2.483A.111.111,0,0,0,1634.437-1176.187Z"/><path class="x" d="M1619.227-1180.067c-.414,0-.724.207-.724.414v3.052c0,.259.31.414.724.414h25.4c.155,0,.259-.052.259-.155v-3.621c0-.052-.1-.155-.259-.155h-25.4Z"/><path class="t" d="M1644.888-1179.809H1633.04a.333.333,0,0,0-.31.31v2.742a.333.333,0,0,0,.31.31h11.847Z"/><path class="x" d="M1631.695-1180.067h-20.28a.574.574,0,0,0-.569.569v2.794a.574.574,0,0,0,.569.569h20.28a.575.575,0,0,0,.569-.569v-2.794a.544.544,0,0,0-.516-.569Z"/><path class="z" d="M1631.695-1180.067h-20.28a.574.574,0,0,0-.569.569v2.794a.574.574,0,0,0,.569.569h20.28a.575.575,0,0,0,.569-.569v-2.794a.544.544,0,0,0-.516-.569Z"/><path class="aa" d="M1675.928-1164.133h-21.366a.407.407,0,0,0-.414.4v.012h0a.407.407,0,0,0,.4.414h21.378a.409.409,0,0,0,.414-.4v-.012h0C1676.394-1163.926,1676.187-1164.133,1675.928-1164.133Z"/><path class="n" d="M1717.73-1165.167h14.02l1.242,1.862h-16.555Z"/><path d="M1739.356-1196.519a1.862,1.862,0,0,1-1.862,1.862,1.862,1.862,0,0,1-1.862-1.862,1.861,1.861,0,0,1,1.862-1.862h0a1.855,1.855,0,0,1,1.862,1.848Z"/><path class="n" d="M1725.18-1163.925a.314.314,0,0,1-.207-.052.552.552,0,0,1-.341-.7.471.471,0,0,1,.031-.072l13.5-31.972a.59.59,0,0,1,.782-.294.59.59,0,0,1,.3.76l-13.5,31.972A.56.56,0,0,1,1725.18-1163.925Z"/><path class="n" d="M1738.683-1195.9a.955.955,0,0,1-.362-.1l-24.574-18.418a.59.59,0,0,1-.131-.824.59.59,0,0,1,.824-.131l.031.024,24.574,18.416a.583.583,0,0,1,.108.817l-.008.011A.659.659,0,0,1,1738.683-1195.9Z"/><path class="n" d="M1740.6-1196.519a1.863,1.863,0,0,1-1.862,1.862,1.862,1.862,0,0,1-1.862-1.862,1.861,1.861,0,0,1,1.862-1.862h0a1.855,1.855,0,0,1,1.862,1.848Z"/><circle class="n" cx="1.862" cy="1.862" r="1.862" transform="translate(1712.298 -1216.747)"/><path class="ab" d="M1711.522-1206.3a4.207,4.207,0,0,1-5.95,0,4.206,4.206,0,0,1,0-5.949,4.207,4.207,0,0,1,5.95,0,4.185,4.185,0,0,1,.033,5.917Z"/><path class="ac" d="M1711.522-1206.3a4.207,4.207,0,0,1-5.95,0,4.206,4.206,0,0,1,0-5.949,4.207,4.207,0,0,1,5.95,0,4.185,4.185,0,0,1,.033,5.917Z"/><path class="n" d="M1714.16-1214.884a9.054,9.054,0,0,0-12.779,0l12.779,12.779A9.056,9.056,0,0,0,1714.16-1214.884Z"/><rect width="175.5" height="0.48" transform="translate(1583.37 -1078.5)"/></g></svg>